<svg id="visual" viewBox="0 0 1920 450" width="1920" height="450" xmlns="http://www.w3.org/2000/svg" xmlns:xlink="http://www.w3.org/1999/xlink" version="1.1">
    <path d="M0 275L40 256.5C80 238 160 201 240 206C320 211 400 258 480 276.8C560 295.7 640 286.3 720 272.2C800 258 880 239 960 233C1040 227 1120 234 1200 245.7C1280 257.3 1360 273.7 1440 266.5C1520 259.3 1600 228.7 1680 222C1760 215.3 1840 232.7 1880 241.3L1920 250L1920 451L1880 451C1840 451 1760 451 1680 451C1600 451 1520 451 1440 451C1360 451 1280 451 1200 451C1120 451 1040 451 960 451C880 451 800 451 720 451C640 451 560 451 480 451C400 451 320 451 240 451C160 451 80 451 40 451L0 451Z" fill="#475569"></path>
    <path d="M0 305L40 307.5C80 310 160 315 240 309C320 303 400 286 480 271.8C560 257.7 640 246.3 720 248.5C800 250.7 880 266.3 960 273.2C1040 280 1120 278 1200 268.3C1280 258.7 1360 241.3 1440 244.5C1520 247.7 1600 271.3 1680 281.7C1760 292 1840 289 1880 287.5L1920 286L1920 451L1880 451C1840 451 1760 451 1680 451C1600 451 1520 451 1440 451C1360 451 1280 451 1200 451C1120 451 1040 451 960 451C880 451 800 451 720 451C640 451 560 451 480 451C400 451 320 451 240 451C160 451 80 451 40 451L0 451Z" fill="#1e293b"></path>
</svg>