<svg id="visual" viewBox="0 0 1920 250" width="1920" height="250" xmlns="http://www.w3.org/2000/svg" xmlns:xlink="http://www.w3.org/1999/xlink" version="1.1">
    <path d="M0 116L64 108.7C128 101.3 256 86.7 384 90.8C512 95 640 118 768 130.5C896 143 1024 145 1152 136.7C1280 128.3 1408 109.7 1536 104.7C1664 99.7 1792 108.3 1856 112.7L1920 117L1920 0L1856 0C1792 0 1664 0 1536 0C1408 0 1280 0 1152 0C1024 0 896 0 768 0C640 0 512 0 384 0C256 0 128 0 64 0L0 0Z" fill="#475569" style="transform: translate(0, 60px)" stroke-linecap="round" stroke-linejoin="miter"></path>
    <path d="M0 116L64 108.7C128 101.3 256 86.7 384 90.8C512 95 640 118 768 130.5C896 143 1024 145 1152 136.7C1280 128.3 1408 109.7 1536 104.7C1664 99.7 1792 108.3 1856 112.7L1920 117L1920 0L1856 0C1792 0 1664 0 1536 0C1408 0 1280 0 1152 0C1024 0 896 0 768 0C640 0 512 0 384 0C256 0 128 0 64 0L0 0Z" fill="#334155" style="transform: translate(0, 30px)" stroke-linecap="round" stroke-linejoin="miter"></path>
    <path d="M0 116L64 108.7C128 101.3 256 86.7 384 90.8C512 95 640 118 768 130.5C896 143 1024 145 1152 136.7C1280 128.3 1408 109.7 1536 104.7C1664 99.7 1792 108.3 1856 112.7L1920 117L1920 0L1856 0C1792 0 1664 0 1536 0C1408 0 1280 0 1152 0C1024 0 896 0 768 0C640 0 512 0 384 0C256 0 128 0 64 0L0 0Z" fill="#1e293b" stroke-linecap="round" stroke-linejoin="miter"></path>
</svg>