<svg id="visual" viewBox="0 0 900 144" width="900" height="144" xmlns="http://www.w3.org/2000/svg" version="1.1">
    <path d="M0 77L37.5 77.3C75 77.7 150 78.3 225 83C300 87.7 375 96.3 450 97.2C525 98 600 91 675 82.7C750 74.3 825 64.7 862.5 59.8L900 55L900 0L862.5 0C825 0 750 0 675 0C600 0 525 0 450 0C375 0 300 0 225 0C150 0 75 0 37.5 0L0 0Z" fill="#475569" style="transform: translate(0, 30px)" stroke-linecap="round" />
    <path d="M0 77L37.5 77.3C75 77.7 150 78.3 225 83C300 87.7 375 96.3 450 97.2C525 98 600 91 675 82.7C750 74.3 825 64.7 862.5 59.8L900 55L900 0L862.5 0C825 0 750 0 675 0C600 0 525 0 450 0C375 0 300 0 225 0C150 0 75 0 37.5 0L0 0Z" fill="#334155" style="transform: translate(0, 15px)" stroke-linecap="round" />
    <path d="M0 77L37.5 77.3C75 77.7 150 78.3 225 83C300 87.7 375 96.3 450 97.2C525 98 600 91 675 82.7C750 74.3 825 64.7 862.5 59.8L900 55L900 0L862.5 0C825 0 750 0 675 0C600 0 525 0 450 0C375 0 300 0 225 0C150 0 75 0 37.5 0L0 0Z" fill="#1e293b" stroke-linecap="round" />
</svg>